<svg width="294" height="40" viewBox="0 0 294 40" fill="none" xmlns="http://www.w3.org/2000/svg">
<path d="M229.191 1.18578C222.219 0.953687 214.679 4.97649 211.104 12.5473C208.885 16.8202 207.192 21.5783 206.067 26.248C205.965 26.6611 205.873 27.0738 205.785 27.4846C205.671 28.1483 205.663 29.0004 205.723 29.8708C205.999 33.5472 209.256 37.9912 214.624 38.2443H218.253H218.293H220.992C227.963 38.4764 235.499 34.4534 239.077 26.8826C241.295 22.6075 242.988 17.8457 244.113 13.1784C244.213 12.7629 244.31 12.3501 244.395 11.9416C244.511 11.2756 244.519 10.4258 244.457 9.55556C244.181 5.87682 240.924 1.43644 235.556 1.18578H231.883H229.191ZM109.64 1.52668L112.491 37.8852H114.264H117.839H118.208C118.199 37.8834 118.185 37.8852 118.176 37.8852C118.215 37.8852 118.254 37.8852 118.291 37.8852H118.512C119.649 37.8499 120.665 37.2551 121.269 36.3477H121.273L144.582 1.52668H138.554L121.855 26.52L119.898 1.52668H109.64ZM148.746 1.52668L135.37 37.8852H145.638L159.011 1.52668H148.746ZM172.84 1.52668C163.617 1.63994 159.541 11.9238 164.58 18.5128C167.136 21.6414 170.787 24.8857 172.848 28.3114C174.154 30.1634 172.757 33.253 170.261 33.2833H165.191H153.975L152.289 37.8852H172.909C180.991 37.8611 186.459 28.3234 181.036 21.0079C178.533 17.3013 174.563 14.7719 172.214 11.1512C170.818 9.26201 172.222 6.16108 174.744 6.12859H179.972H189.901L191.59 1.52668H172.84ZM198.697 1.52668L185.327 37.8852H195.592L208.965 1.52668H198.697ZM254.121 1.52668L240.69 37.8852H245.98L255.236 12.8266L255.283 13.2763L263.597 35.7819C264.095 36.9656 265.239 37.8132 266.583 37.8852H271.42L284.855 1.52668H279.565L270.487 26.0992L260.822 1.52668H259.411H254.121ZM231.536 4.94641C233.472 5.09494 235.01 6.7272 235.01 8.70703C235.024 9.19443 234.94 9.67532 234.76 10.1141L227.976 28.6305C226.607 32.1839 223.426 34.3613 219.646 34.4727H218.644C216.708 34.3242 215.171 32.6919 215.171 30.7121C215.156 30.2247 215.241 29.7379 215.424 29.3015L222.204 10.7849C223.575 7.23149 226.757 5.05911 230.541 4.94993H231.536V4.94641Z" fill="white"/>
<path d="M14.4868 1.5269L1.11011 37.8855H12.0119L18.409 20.4968H31.3878L24.9907 37.8855H33.5081C34.9484 37.8855 36.186 36.9742 36.6885 35.7023C36.6941 35.6837 36.6996 35.6782 36.7071 35.6689L49.2661 1.52597H38.3642L33.2154 15.5241H20.2367L25.3855 1.52597L14.4868 1.5269ZM56.1946 1.5269L42.8215 37.8855H53.7197L67.0928 1.5269H66.7781H56.513H56.1946ZM74.5103 1.5269L61.1372 37.8855H72.0354L77.1625 23.9418L79.887 21.8457L87.1164 35.8945L87.1201 35.8759C87.1293 35.8945 87.133 35.9 87.1386 35.9093C87.7314 37.1418 89.033 37.9543 90.471 37.8569C90.4456 37.8569 90.4178 37.8754 90.3878 37.8754H99.6434L88.13 15.5003L106.29 1.52393H98.1454L80.3797 15.1956L85.4091 1.52393H74.5109L74.5103 1.5269Z" fill="#D71820"/>
<path d="M292.89 4.74074C292.89 6.767 291.304 8.3545 289.24 8.3545C287.198 8.3545 285.57 6.767 285.57 4.74074C285.57 2.75868 287.198 1.16895 289.24 1.16895C291.304 1.16895 292.89 2.75868 292.89 4.74074ZM286.482 4.74074C286.482 6.33066 287.654 7.59324 289.261 7.59324C290.827 7.59324 291.978 6.33066 291.978 4.76172C291.978 3.17422 290.827 1.88843 289.24 1.88843C287.654 1.88843 286.482 3.17422 286.482 4.74074ZM288.675 6.61382H287.851V3.04183C288.175 2.97685 288.631 2.93228 289.22 2.93228C289.891 2.93228 290.197 3.04183 290.456 3.19446C290.653 3.34671 290.804 3.63079 290.804 3.97893C290.804 4.37125 290.5 4.6752 290.065 4.80517V4.84973C290.412 4.9797 290.609 5.24188 290.718 5.71998C290.827 6.26549 290.891 6.48366 290.977 6.61363H290.088C289.979 6.48366 289.914 6.15632 289.805 5.74319C289.741 5.35105 289.523 5.17689 289.067 5.17689H288.675V6.61382ZM288.696 4.58756H289.088C289.544 4.58756 289.914 4.43717 289.914 4.06545C289.914 3.74052 289.676 3.52235 289.152 3.52235C288.937 3.52235 288.784 3.54278 288.696 3.56506V4.58756Z" fill="white"/>
</svg>
